<svg width="491" height="232" viewBox="0 0 491 232" fill="none" xmlns="http://www.w3.org/2000/svg">
    <rect x="322" width="169" height="36" fill="#57ADF5" fill-opacity="0.7" />
    <rect y="193" width="177" height="36" fill="#57ADF5" fill-opacity="0.7" />
    <path
        d="M407.056 36.1667C411.634 43.0341 415.259 52.0484 418.5 59.6111C424.156 72.8078 426.945 87.2927 430.222 101.222C434.117 117.776 436.214 134.977 434.556 152C431.536 182.989 412.559 213.513 381.833 223.389C353.188 232.596 314.555 227.306 293.611 204.5C278.572 188.124 270.537 163.001 274 141C276.433 125.542 282.593 108.206 300.444 106.222C317.47 104.331 330.22 121.31 338.889 133.5C352.699 152.921 345.481 180.035 332.944 197.944C317.701 219.721 294.036 233.333 267 230C256.628 228.721 245.117 224.219 237.111 217.333C226.714 208.392 220.858 193.986 215 181.944C202.278 155.794 195.387 126.479 186 99C176.782 72.0151 160.29 49.831 131 44.2222C113.242 40.8218 88.2036 41.7082 81.6111 62.5C75.246 82.5746 79.9204 106.911 81.5 127.444C82.9614 146.443 82.3051 147.582 82 166.5"
        stroke="#CEE9FF" stroke-width="1.5" stroke-linecap="round" />
    <path
        d="M372.557 25H367.181V10.4545H372.55C374.032 10.4545 375.308 10.7457 376.378 11.3281C377.453 11.9058 378.282 12.7391 378.864 13.8281C379.447 14.9124 379.738 16.2098 379.738 17.7202C379.738 19.2353 379.447 20.5374 378.864 21.6264C378.287 22.7154 377.46 23.5511 376.385 24.1335C375.311 24.7112 374.035 25 372.557 25ZM370.697 22.0028H372.422C373.237 22.0028 373.926 21.8655 374.489 21.5909C375.057 21.3116 375.486 20.8594 375.775 20.2344C376.068 19.6046 376.215 18.7666 376.215 17.7202C376.215 16.6738 376.068 15.8404 375.775 15.2202C375.481 14.5952 375.048 14.1454 374.475 13.8707C373.907 13.5914 373.206 13.4517 372.373 13.4517H370.697V22.0028ZM386.89 25.206C385.749 25.206 384.764 24.9811 383.935 24.5312C383.111 24.0767 382.477 23.4304 382.032 22.5923C381.591 21.7495 381.371 20.7481 381.371 19.5881C381.371 18.4612 381.594 17.4763 382.039 16.6335C382.484 15.786 383.111 15.1278 383.921 14.6591C384.731 14.1856 385.685 13.9489 386.783 13.9489C387.56 13.9489 388.27 14.0696 388.914 14.3111C389.558 14.5526 390.114 14.91 390.583 15.3835C391.052 15.857 391.416 16.4418 391.677 17.1378C391.937 17.8291 392.067 18.6222 392.067 19.517V20.3835H382.586V18.3665H388.836C388.831 17.9972 388.743 17.6681 388.573 17.3793C388.403 17.0904 388.168 16.8655 387.87 16.7045C387.576 16.5388 387.238 16.456 386.854 16.456C386.466 16.456 386.118 16.5436 385.81 16.7188C385.502 16.8892 385.259 17.1236 385.079 17.4219C384.899 17.7154 384.804 18.0492 384.795 18.4233V20.4759C384.795 20.9209 384.882 21.3116 385.057 21.6477C385.233 21.9792 385.481 22.2372 385.803 22.4219C386.125 22.6065 386.509 22.6989 386.954 22.6989C387.261 22.6989 387.541 22.6562 387.792 22.571C388.043 22.4858 388.258 22.3603 388.438 22.1946C388.618 22.0289 388.753 21.8253 388.843 21.5838L392.032 21.6761C391.899 22.3911 391.608 23.0137 391.158 23.544C390.713 24.0696 390.128 24.4792 389.404 24.7727C388.68 25.0616 387.841 25.206 386.89 25.206ZM404.131 14.0909L400.388 25H396.41L392.675 14.0909H396.332L398.342 21.6051H398.456L400.473 14.0909H404.131ZM410.21 25.206C409.069 25.206 408.084 24.9811 407.256 24.5312C406.432 24.0767 405.797 23.4304 405.352 22.5923C404.912 21.7495 404.692 20.7481 404.692 19.5881C404.692 18.4612 404.914 17.4763 405.359 16.6335C405.804 15.786 406.432 15.1278 407.241 14.6591C408.051 14.1856 409.005 13.9489 410.104 13.9489C410.88 13.9489 411.59 14.0696 412.234 14.3111C412.878 14.5526 413.434 14.91 413.903 15.3835C414.372 15.857 414.737 16.4418 414.997 17.1378C415.257 17.8291 415.388 18.6222 415.388 19.517V20.3835H405.906V18.3665H412.156C412.151 17.9972 412.064 17.6681 411.893 17.3793C411.723 17.0904 411.488 16.8655 411.19 16.7045C410.897 16.5388 410.558 16.456 410.175 16.456C409.786 16.456 409.438 16.5436 409.131 16.7188C408.823 16.8892 408.579 17.1236 408.399 17.4219C408.219 17.7154 408.124 18.0492 408.115 18.4233V20.4759C408.115 20.9209 408.202 21.3116 408.378 21.6477C408.553 21.9792 408.801 22.2372 409.123 22.4219C409.445 22.6065 409.829 22.6989 410.274 22.6989C410.582 22.6989 410.861 22.6562 411.112 22.571C411.363 22.4858 411.578 22.3603 411.758 22.1946C411.938 22.0289 412.073 21.8253 412.163 21.5838L415.352 21.6761C415.22 22.3911 414.928 23.0137 414.479 23.544C414.033 24.0696 413.449 24.4792 412.724 24.7727C412 25.0616 411.162 25.206 410.21 25.206ZM420.634 10.4545V25H417.161V10.4545H420.634ZM427.937 25.206C426.791 25.206 425.807 24.9716 424.983 24.5028C424.164 24.0294 423.532 23.3712 423.086 22.5284C422.646 21.6809 422.426 20.6984 422.426 19.581C422.426 18.4588 422.646 17.4763 423.086 16.6335C423.532 15.786 424.164 15.1278 424.983 14.6591C425.807 14.1856 426.791 13.9489 427.937 13.9489C429.083 13.9489 430.066 14.1856 430.885 14.6591C431.709 15.1278 432.341 15.786 432.781 16.6335C433.226 17.4763 433.449 18.4588 433.449 19.581C433.449 20.6984 433.226 21.6809 432.781 22.5284C432.341 23.3712 431.709 24.0294 430.885 24.5028C430.066 24.9716 429.083 25.206 427.937 25.206ZM427.959 22.5852C428.375 22.5852 428.728 22.4574 429.017 22.2017C429.306 21.946 429.526 21.5909 429.677 21.1364C429.834 20.6818 429.912 20.1562 429.912 19.5597C429.912 18.9536 429.834 18.4233 429.677 17.9688C429.526 17.5142 429.306 17.1591 429.017 16.9034C428.728 16.6477 428.375 16.5199 427.959 16.5199C427.528 16.5199 427.163 16.6477 426.865 16.9034C426.571 17.1591 426.346 17.5142 426.19 17.9688C426.039 18.4233 425.963 18.9536 425.963 19.5597C425.963 20.1562 426.039 20.6818 426.19 21.1364C426.346 21.5909 426.571 21.946 426.865 22.2017C427.163 22.4574 427.528 22.5852 427.959 22.5852ZM435.228 29.0909V14.0909H438.665V15.9588H438.772C438.914 15.6274 439.115 15.3078 439.376 15C439.641 14.6922 439.977 14.4413 440.384 14.2472C440.796 14.0483 441.288 13.9489 441.861 13.9489C442.619 13.9489 443.327 14.1477 443.985 14.5455C444.648 14.9432 445.183 15.5563 445.59 16.3849C445.997 17.2135 446.201 18.2694 446.201 19.5526C446.201 20.7884 446.004 21.8229 445.611 22.6562C445.223 23.4896 444.698 24.1146 444.035 24.5312C443.376 24.9479 442.645 25.1562 441.84 25.1562C441.291 25.1562 440.815 25.0663 440.412 24.8864C440.01 24.7064 439.671 24.4697 439.397 24.1761C439.127 23.8826 438.919 23.5677 438.772 23.2315H438.701V29.0909H435.228ZM438.63 19.5455C438.63 20.1326 438.708 20.6439 438.864 21.0795C439.025 21.5152 439.255 21.8537 439.553 22.0952C439.856 22.3319 440.218 22.4503 440.64 22.4503C441.066 22.4503 441.428 22.3319 441.726 22.0952C442.025 21.8537 442.25 21.5152 442.401 21.0795C442.557 20.6439 442.635 20.1326 442.635 19.5455C442.635 18.9583 442.557 18.4493 442.401 18.0185C442.25 17.5876 442.025 17.2538 441.726 17.017C441.433 16.7803 441.071 16.6619 440.64 16.6619C440.214 16.6619 439.851 16.7779 439.553 17.0099C439.255 17.242 439.025 17.5734 438.864 18.0043C438.708 18.4351 438.63 18.9489 438.63 19.5455Z"
        fill="white" />
    <path
        d="M60.4363 218H55.0598V203.455H60.4292C61.9112 203.455 63.1872 203.746 64.2573 204.328C65.3321 204.906 66.1607 205.739 66.7431 206.828C67.3255 207.912 67.6167 209.21 67.6167 210.72C67.6167 212.235 67.3255 213.537 66.7431 214.626C66.1654 215.715 65.3392 216.551 64.2644 217.134C63.1896 217.711 61.9135 218 60.4363 218ZM58.5755 215.003H60.3013C61.1157 215.003 61.8046 214.866 62.3681 214.591C62.9363 214.312 63.3648 213.859 63.6536 213.234C63.9471 212.605 64.0939 211.767 64.0939 210.72C64.0939 209.674 63.9471 208.84 63.6536 208.22C63.36 207.595 62.9268 207.145 62.3539 206.871C61.7857 206.591 61.0849 206.452 60.2516 206.452H58.5755V215.003ZM74.7686 218.206C73.6275 218.206 72.6427 217.981 71.8141 217.531C70.9902 217.077 70.3558 216.43 69.9107 215.592C69.4703 214.75 69.2502 213.748 69.2502 212.588C69.2502 211.461 69.4727 210.476 69.9178 209.634C70.3629 208.786 70.9902 208.128 71.7999 207.659C72.6096 207.186 73.5636 206.949 74.6621 206.949C75.4386 206.949 76.1489 207.07 76.7928 207.311C77.4367 207.553 77.9931 207.91 78.4618 208.384C78.9306 208.857 79.2952 209.442 79.5556 210.138C79.816 210.829 79.9462 211.622 79.9462 212.517V213.384H70.4647V211.366H76.7147C76.7099 210.997 76.6223 210.668 76.4519 210.379C76.2814 210.09 76.0471 209.866 75.7488 209.705C75.4552 209.539 75.1167 209.456 74.7331 209.456C74.3449 209.456 73.9969 209.544 73.6891 209.719C73.3813 209.889 73.1375 210.124 72.9576 210.422C72.7776 210.715 72.6829 211.049 72.6735 211.423V213.476C72.6735 213.921 72.7611 214.312 72.9363 214.648C73.1114 214.979 73.36 215.237 73.682 215.422C74.004 215.607 74.3875 215.699 74.8326 215.699C75.1403 215.699 75.4197 215.656 75.6706 215.571C75.9216 215.486 76.137 215.36 76.3169 215.195C76.4969 215.029 76.6318 214.825 76.7218 214.584L79.9107 214.676C79.7781 215.391 79.4869 216.014 79.0371 216.544C78.592 217.07 78.0073 217.479 77.2828 217.773C76.5584 218.062 75.7203 218.206 74.7686 218.206ZM81.72 222.091V207.091H85.1575V208.959H85.264C85.4061 208.627 85.6073 208.308 85.8677 208C86.1329 207.692 86.469 207.441 86.8762 207.247C87.2882 207.048 87.7806 206.949 88.3535 206.949C89.1111 206.949 89.819 207.148 90.4771 207.545C91.14 207.943 91.675 208.556 92.0822 209.385C92.4894 210.214 92.693 211.269 92.693 212.553C92.693 213.788 92.4965 214.823 92.1035 215.656C91.7153 216.49 91.1897 217.115 90.5268 217.531C89.8687 217.948 89.1371 218.156 88.3322 218.156C87.783 218.156 87.3071 218.066 86.9047 217.886C86.5022 217.706 86.1636 217.47 85.889 217.176C85.6191 216.883 85.4108 216.568 85.264 216.232H85.193V222.091H81.72ZM85.122 212.545C85.122 213.133 85.2001 213.644 85.3564 214.08C85.5173 214.515 85.747 214.854 86.0453 215.095C86.3483 215.332 86.7105 215.45 87.1319 215.45C87.5581 215.45 87.9203 215.332 88.2186 215.095C88.5169 214.854 88.7418 214.515 88.8933 214.08C89.0495 213.644 89.1277 213.133 89.1277 212.545C89.1277 211.958 89.0495 211.449 88.8933 211.018C88.7418 210.588 88.5169 210.254 88.2186 210.017C87.925 209.78 87.5628 209.662 87.1319 209.662C86.7058 209.662 86.3436 209.778 86.0453 210.01C85.747 210.242 85.5173 210.573 85.3564 211.004C85.2001 211.435 85.122 211.949 85.122 212.545ZM97.986 203.455V218H94.513V203.455H97.986ZM105.289 218.206C104.143 218.206 103.158 217.972 102.334 217.503C101.515 217.029 100.883 216.371 100.438 215.528C99.9977 214.681 99.7775 213.698 99.7775 212.581C99.7775 211.459 99.9977 210.476 100.438 209.634C100.883 208.786 101.515 208.128 102.334 207.659C103.158 207.186 104.143 206.949 105.289 206.949C106.435 206.949 107.417 207.186 108.236 207.659C109.06 208.128 109.692 208.786 110.133 209.634C110.578 210.476 110.8 211.459 110.8 212.581C110.8 213.698 110.578 214.681 110.133 215.528C109.692 216.371 109.06 217.029 108.236 217.503C107.417 217.972 106.435 218.206 105.289 218.206ZM105.31 215.585C105.727 215.585 106.08 215.457 106.368 215.202C106.657 214.946 106.877 214.591 107.029 214.136C107.185 213.682 107.263 213.156 107.263 212.56C107.263 211.954 107.185 211.423 107.029 210.969C106.877 210.514 106.657 210.159 106.368 209.903C106.08 209.648 105.727 209.52 105.31 209.52C104.879 209.52 104.515 209.648 104.216 209.903C103.923 210.159 103.698 210.514 103.542 210.969C103.39 211.423 103.314 211.954 103.314 212.56C103.314 213.156 103.39 213.682 103.542 214.136C103.698 214.591 103.923 214.946 104.216 215.202C104.515 215.457 104.879 215.585 105.31 215.585ZM114.351 222.091C113.935 222.091 113.542 222.058 113.172 221.991C112.803 221.93 112.486 221.847 112.221 221.743L112.988 219.222C113.329 219.335 113.636 219.402 113.911 219.42C114.19 219.439 114.43 219.394 114.628 219.286C114.832 219.181 114.988 218.994 115.097 218.724L115.232 218.398L111.354 207.091H114.991L117.001 214.875H117.114L119.153 207.091H122.81L118.698 219.044C118.499 219.641 118.217 220.166 117.853 220.621C117.493 221.08 117.027 221.44 116.454 221.7C115.885 221.961 115.185 222.091 114.351 222.091Z"
        fill="white" />
    <path
        d="M81.4697 174.53C81.7626 174.823 82.2374 174.823 82.5303 174.53L87.3033 169.757C87.5962 169.464 87.5962 168.99 87.3033 168.697C87.0104 168.404 86.5355 168.404 86.2426 168.697L82 172.939L77.7574 168.697C77.4645 168.404 76.9896 168.404 76.6967 168.697C76.4038 168.99 76.4038 169.464 76.6967 169.757L81.4697 174.53ZM81.25 166V174H82.75V166H81.25Z"
        fill="#CEE9FF" />
</svg>