<svg width="530" height="562" viewBox="0 0 530 562" fill="none" xmlns="http://www.w3.org/2000/svg">
<rect x="322" width="169" height="36" fill="#913BFF" fill-opacity="0.7"/>
<rect y="193" width="177" height="36" fill="#913BFF" fill-opacity="0.7"/>
<path d="M407.056 36.1667C411.634 43.0341 415.259 52.0484 418.5 59.6111C424.156 72.8078 426.945 87.2927 430.222 101.222C434.117 117.776 436.214 134.977 434.556 152C431.536 182.989 412.559 213.513 381.833 223.389C353.189 232.596 314.555 227.306 293.611 204.5C278.572 188.124 270.537 163.001 274 141C276.433 125.542 282.593 108.206 300.444 106.222C317.47 104.331 330.22 121.31 338.889 133.5C352.699 152.921 345.481 180.035 332.944 197.944C317.701 219.721 294.036 233.333 267 230C256.628 228.721 245.117 224.219 237.111 217.333C226.714 208.392 220.858 193.986 215 181.944C202.278 155.794 195.387 126.479 186 99C176.782 72.0151 160.29 49.831 131 44.2222C113.242 40.8218 88.2036 41.7082 81.6111 62.5C75.246 82.5746 79.9205 106.911 81.5 127.444C82.9614 146.443 82.3051 147.582 82 166.5" stroke="#888888" stroke-width="1.5" stroke-linecap="round"/>
<path d="M105 229C105 250.198 106.659 271.072 107.778 292.222C110.22 338.377 109.207 384.687 113 430.778C116.181 469.432 130.202 523.923 173 535.556C190.302 540.258 206.581 537.208 217.5 522.278C231.181 503.571 239.036 481.744 242.889 459.056C248.617 425.325 248.594 369.837 206.444 359.167C195.938 356.507 179.121 354.482 170.444 363C163.41 369.907 167.06 383.264 168.556 391.556C171.126 405.807 177.682 421.327 187.667 432C200.551 445.773 219.528 452.906 237.5 456.944C254.887 460.852 272.419 461.638 288 451.778C305.357 440.794 314.502 423.373 320.556 404.222C332.563 366.235 333.746 319.778 311 285.444C301.322 270.836 288.313 258.831 271.056 254.167C260.981 251.444 247.073 250.781 243.222 262.778C239.418 274.629 249.397 288.352 256.111 297.056C268.229 312.763 282.865 324.744 299.222 335.778C314.229 345.901 332.022 358.179 350.444 360.278C366.822 362.144 381.914 353.726 394.389 344C399.953 339.662 431.886 305.78 436.444 324.667C436.444 346.5 436.444 370.5 436.444 391.5C436.444 416.5 438.944 483.5 437 510.5" stroke="#888888" stroke-width="1.5" stroke-linecap="round"/>
<rect x="337" y="526" width="193" height="36" fill="#888888" fill-opacity="0.7"/>
<path d="M353.188 10.4545H356.696V19.8366C356.696 20.9209 356.438 21.8655 355.922 22.6705C355.406 23.4706 354.686 24.0909 353.763 24.5312C352.84 24.9669 351.767 25.1847 350.546 25.1847C349.31 25.1847 348.23 24.9669 347.307 24.5312C346.384 24.0909 345.666 23.4706 345.155 22.6705C344.644 21.8655 344.388 20.9209 344.388 19.8366V10.4545H347.904V19.5312C347.904 20.0331 348.012 20.4806 348.23 20.8736C348.453 21.2666 348.763 21.5743 349.161 21.7969C349.558 22.0194 350.02 22.1307 350.546 22.1307C351.071 22.1307 351.53 22.0194 351.923 21.7969C352.321 21.5743 352.631 21.2666 352.854 20.8736C353.076 20.4806 353.188 20.0331 353.188 19.5312V10.4545ZM362.458 10.4545L365.114 15.0497H365.228L367.912 10.4545H371.847L367.458 17.7273L371.989 25H367.955L365.228 20.3551H365.114L362.387 25H358.381L362.891 17.7273L358.495 10.4545H362.458ZM377.962 25V10.4545H383.971C385.06 10.4545 386 10.651 386.79 11.044C387.586 11.4323 388.199 11.991 388.63 12.7202C389.061 13.4446 389.276 14.304 389.276 15.2983C389.276 16.3068 389.056 17.1638 388.616 17.8693C388.175 18.5701 387.55 19.1051 386.741 19.4744C385.931 19.839 384.972 20.0213 383.864 20.0213H380.064V17.2514H383.211C383.741 17.2514 384.184 17.1828 384.539 17.0455C384.899 16.9034 385.171 16.6903 385.356 16.4062C385.54 16.1174 385.633 15.7481 385.633 15.2983C385.633 14.8485 385.54 14.4768 385.356 14.1832C385.171 13.8849 384.899 13.6624 384.539 13.5156C384.179 13.3641 383.736 13.2884 383.211 13.2884H381.478V25H377.962ZM386.151 18.3523L389.773 25H385.938L382.387 18.3523H386.151ZM396.089 25.206C394.948 25.206 393.963 24.9811 393.134 24.5312C392.311 24.0767 391.676 23.4304 391.231 22.5923C390.791 21.7495 390.57 20.7481 390.57 19.5881C390.57 18.4612 390.793 17.4763 391.238 16.6335C391.683 15.786 392.311 15.1278 393.12 14.6591C393.93 14.1856 394.884 13.9489 395.982 13.9489C396.759 13.9489 397.469 14.0696 398.113 14.3111C398.757 14.5526 399.313 14.91 399.782 15.3835C400.251 15.857 400.615 16.4418 400.876 17.1378C401.136 17.8291 401.267 18.6222 401.267 19.517V20.3835H391.785V18.3665H398.035C398.03 17.9972 397.943 17.6681 397.772 17.3793C397.602 17.0904 397.367 16.8655 397.069 16.7045C396.776 16.5388 396.437 16.456 396.053 16.456C395.665 16.456 395.317 16.5436 395.009 16.7188C394.702 16.8892 394.458 17.1236 394.278 17.4219C394.098 17.7154 394.003 18.0492 393.994 18.4233V20.4759C393.994 20.9209 394.081 21.3116 394.257 21.6477C394.432 21.9792 394.68 22.2372 395.002 22.4219C395.324 22.6065 395.708 22.6989 396.153 22.6989C396.461 22.6989 396.74 22.6562 396.991 22.571C397.242 22.4858 397.457 22.3603 397.637 22.1946C397.817 22.0289 397.952 21.8253 398.042 21.5838L401.231 21.6761C401.098 22.3911 400.807 23.0137 400.357 23.544C399.912 24.0696 399.328 24.4792 398.603 24.7727C397.879 25.0616 397.041 25.206 396.089 25.206ZM412.564 17.4219L409.376 17.5071C409.342 17.2798 409.252 17.0786 409.106 16.9034C408.959 16.7235 408.767 16.5838 408.53 16.4844C408.298 16.3802 408.028 16.3281 407.721 16.3281C407.318 16.3281 406.975 16.4086 406.691 16.5696C406.412 16.7306 406.274 16.9484 406.279 17.223C406.274 17.4361 406.359 17.6207 406.535 17.777C406.715 17.9332 407.034 18.0587 407.493 18.1534L409.596 18.5511C410.685 18.7595 411.494 19.1051 412.025 19.5881C412.56 20.071 412.83 20.7102 412.834 21.5057C412.83 22.2538 412.607 22.9048 412.167 23.4588C411.731 24.0128 411.135 24.4437 410.377 24.7514C409.619 25.0545 408.753 25.206 407.778 25.206C406.22 25.206 404.991 24.8864 404.091 24.2472C403.197 23.6032 402.685 22.7415 402.557 21.6619L405.988 21.5767C406.064 21.9744 406.26 22.2775 406.577 22.4858C406.894 22.6941 407.299 22.7983 407.792 22.7983C408.237 22.7983 408.599 22.7154 408.878 22.5497C409.158 22.384 409.3 22.1638 409.305 21.8892C409.3 21.643 409.191 21.4465 408.978 21.2997C408.765 21.1482 408.431 21.0298 407.976 20.9446L406.073 20.5824C404.979 20.3835 404.165 20.0166 403.63 19.4815C403.095 18.9418 402.83 18.2552 402.834 17.4219C402.83 16.6927 403.024 16.0701 403.417 15.554C403.81 15.0331 404.368 14.6354 405.093 14.3608C405.817 14.0862 406.672 13.9489 407.657 13.9489C409.134 13.9489 410.299 14.259 411.151 14.8793C412.003 15.4948 412.474 16.3423 412.564 17.4219ZM419.644 25.206C418.503 25.206 417.518 24.9811 416.689 24.5312C415.865 24.0767 415.231 23.4304 414.786 22.5923C414.345 21.7495 414.125 20.7481 414.125 19.5881C414.125 18.4612 414.348 17.4763 414.793 16.6335C415.238 15.786 415.865 15.1278 416.675 14.6591C417.485 14.1856 418.439 13.9489 419.537 13.9489C420.314 13.9489 421.024 14.0696 421.668 14.3111C422.312 14.5526 422.868 14.91 423.337 15.3835C423.806 15.857 424.17 16.4418 424.431 17.1378C424.691 17.8291 424.821 18.6222 424.821 19.517V20.3835H415.34V18.3665H421.59C421.585 17.9972 421.497 17.6681 421.327 17.3793C421.156 17.0904 420.922 16.8655 420.624 16.7045C420.33 16.5388 419.992 16.456 419.608 16.456C419.22 16.456 418.872 16.5436 418.564 16.7188C418.256 16.8892 418.012 17.1236 417.833 17.4219C417.653 17.7154 417.558 18.0492 417.548 18.4233V20.4759C417.548 20.9209 417.636 21.3116 417.811 21.6477C417.986 21.9792 418.235 22.2372 418.557 22.4219C418.879 22.6065 419.262 22.6989 419.708 22.6989C420.015 22.6989 420.295 22.6562 420.546 22.571C420.797 22.4858 421.012 22.3603 421.192 22.1946C421.372 22.0289 421.507 21.8253 421.597 21.5838L424.786 21.6761C424.653 22.3911 424.362 23.0137 423.912 23.544C423.467 24.0696 422.882 24.4792 422.158 24.7727C421.433 25.0616 420.595 25.206 419.644 25.206ZM429.67 25.1847C428.974 25.1847 428.356 25.0687 427.817 24.8366C427.282 24.5999 426.858 24.2448 426.545 23.7713C426.238 23.2931 426.084 22.6941 426.084 21.9744C426.084 21.3684 426.19 20.857 426.403 20.4403C426.616 20.0237 426.91 19.6851 427.284 19.4247C427.658 19.1643 428.089 18.9678 428.577 18.8352C429.064 18.6979 429.585 18.6056 430.139 18.5582C430.759 18.5014 431.259 18.4422 431.638 18.3807C432.016 18.3144 432.291 18.2221 432.461 18.1037C432.637 17.9806 432.724 17.8078 432.724 17.5852V17.5497C432.724 17.1851 432.599 16.9034 432.348 16.7045C432.097 16.5057 431.758 16.4062 431.332 16.4062C430.873 16.4062 430.504 16.5057 430.224 16.7045C429.945 16.9034 429.767 17.178 429.692 17.5284L426.488 17.4148C426.583 16.7519 426.827 16.16 427.22 15.6392C427.618 15.1136 428.162 14.7017 428.854 14.4034C429.55 14.1004 430.385 13.9489 431.361 13.9489C432.057 13.9489 432.698 14.0317 433.285 14.1974C433.872 14.3584 434.384 14.5952 434.819 14.9077C435.255 15.2154 435.591 15.5942 435.828 16.044C436.069 16.4938 436.19 17.0076 436.19 17.5852V25H432.923V23.4801H432.838C432.644 23.8494 432.395 24.1619 432.092 24.4176C431.794 24.6733 431.441 24.8651 431.034 24.9929C430.631 25.1207 430.177 25.1847 429.67 25.1847ZM430.743 22.9119C431.117 22.9119 431.453 22.8362 431.751 22.6847C432.054 22.5331 432.296 22.3248 432.476 22.0597C432.656 21.7898 432.746 21.4773 432.746 21.1222V20.0852C432.646 20.1373 432.525 20.1847 432.383 20.2273C432.246 20.2699 432.095 20.3101 431.929 20.348C431.763 20.3859 431.593 20.419 431.417 20.4474C431.242 20.4759 431.074 20.5019 430.913 20.5256C430.586 20.5777 430.307 20.6581 430.075 20.767C429.848 20.8759 429.673 21.018 429.55 21.1932C429.431 21.3636 429.372 21.5672 429.372 21.804C429.372 22.1638 429.5 22.4384 429.756 22.6278C430.016 22.8172 430.345 22.9119 430.743 22.9119ZM438.314 25V14.0909H441.687V16.0795H441.801C442 15.3598 442.324 14.8248 442.774 14.4744C443.224 14.1193 443.747 13.9418 444.344 13.9418C444.505 13.9418 444.67 13.9536 444.841 13.9773C445.011 13.9962 445.17 14.027 445.317 14.0696V17.0881C445.151 17.0312 444.933 16.9863 444.663 16.9531C444.398 16.92 444.161 16.9034 443.953 16.9034C443.541 16.9034 443.169 16.9957 442.838 17.1804C442.511 17.3603 442.253 17.6136 442.064 17.9403C441.879 18.2623 441.787 18.6411 441.787 19.0767V25H438.314ZM451.258 25.206C450.107 25.206 449.12 24.9692 448.296 24.4957C447.477 24.0223 446.847 23.3641 446.407 22.5213C445.966 21.6738 445.746 20.6937 445.746 19.581C445.746 18.4635 445.966 17.4834 446.407 16.6406C446.852 15.7931 447.484 15.1326 448.303 14.6591C449.127 14.1856 450.109 13.9489 451.251 13.9489C452.259 13.9489 453.137 14.1312 453.885 14.4957C454.638 14.8603 455.225 15.3764 455.647 16.044C456.073 16.7069 456.298 17.4858 456.322 18.3807H453.076C453.01 17.822 452.82 17.384 452.508 17.0668C452.2 16.7495 451.797 16.5909 451.3 16.5909C450.898 16.5909 450.545 16.7045 450.242 16.9318C449.939 17.1544 449.702 17.4858 449.532 17.9261C449.366 18.3617 449.283 18.9015 449.283 19.5455C449.283 20.1894 449.366 20.7339 449.532 21.179C449.702 21.6193 449.939 21.9531 450.242 22.1804C450.545 22.4029 450.898 22.5142 451.3 22.5142C451.622 22.5142 451.906 22.4455 452.153 22.3082C452.403 22.1709 452.609 21.9697 452.77 21.7045C452.931 21.4347 453.033 21.108 453.076 20.7244H456.322C456.288 21.6241 456.064 22.41 455.647 23.0824C455.235 23.7547 454.655 24.2779 453.907 24.652C453.163 25.0213 452.28 25.206 451.258 25.206ZM461.572 18.7784V25H458.099V10.4545H461.458V16.0938H461.579C461.825 15.4214 462.228 14.8958 462.786 14.517C463.35 14.1383 464.039 13.9489 464.853 13.9489C465.62 13.9489 466.288 14.1193 466.856 14.4602C467.424 14.7964 467.865 15.2723 468.177 15.8878C468.494 16.5033 468.651 17.223 468.646 18.0469V25H465.173V18.7287C465.177 18.1226 465.026 17.6491 464.718 17.3082C464.41 16.9673 463.977 16.7969 463.419 16.7969C463.054 16.7969 462.732 16.8774 462.453 17.0384C462.178 17.1946 461.963 17.4195 461.806 17.7131C461.655 18.0066 461.577 18.3617 461.572 18.7784Z" fill="white"/>
<path d="M51.4572 203.455H54.9657V212.837C54.9657 213.921 54.7077 214.866 54.1916 215.67C53.6755 216.471 52.9558 217.091 52.0325 217.531C51.1092 217.967 50.0368 218.185 48.8152 218.185C47.5794 218.185 46.4998 217.967 45.5765 217.531C44.6532 217.091 43.9359 216.471 43.4245 215.67C42.9132 214.866 42.6575 213.921 42.6575 212.837V203.455H46.1731V212.531C46.1731 213.033 46.282 213.481 46.4998 213.874C46.7224 214.267 47.0325 214.574 47.4302 214.797C47.8279 215.019 48.2896 215.131 48.8152 215.131C49.3407 215.131 49.8 215.019 50.193 214.797C50.5907 214.574 50.9009 214.267 51.1234 213.874C51.3459 213.481 51.4572 213.033 51.4572 212.531V203.455ZM60.6848 203.455V218H57.1692V203.455H60.6848ZM72.5652 218H67.1887V203.455H72.5581C74.0401 203.455 75.3161 203.746 76.3862 204.328C77.461 204.906 78.2896 205.739 78.872 206.828C79.4544 207.912 79.7456 209.21 79.7456 210.72C79.7456 212.235 79.4544 213.537 78.872 214.626C78.2943 215.715 77.4681 216.551 76.3933 217.134C75.3185 217.711 74.0424 218 72.5652 218ZM70.7044 215.003H72.4302C73.2446 215.003 73.9335 214.866 74.497 214.591C75.0652 214.312 75.4937 213.859 75.7825 213.234C76.0761 212.605 76.2228 211.767 76.2228 210.72C76.2228 209.674 76.0761 208.84 75.7825 208.22C75.4889 207.595 75.0557 207.145 74.4828 206.871C73.9146 206.591 73.2138 206.452 72.3805 206.452H70.7044V215.003ZM86.8975 218.206C85.7565 218.206 84.7716 217.981 83.943 217.531C83.1191 217.077 82.4847 216.43 82.0396 215.592C81.5993 214.75 81.3791 213.748 81.3791 212.588C81.3791 211.461 81.6016 210.476 82.0467 209.634C82.4918 208.786 83.1191 208.128 83.9288 207.659C84.7385 207.186 85.6925 206.949 86.791 206.949C87.5675 206.949 88.2778 207.07 88.9217 207.311C89.5656 207.553 90.122 207.91 90.5907 208.384C91.0595 208.857 91.4241 209.442 91.6845 210.138C91.9449 210.829 92.0751 211.622 92.0751 212.517V213.384H82.5936V211.366H88.8436C88.8388 210.997 88.7512 210.668 88.5808 210.379C88.4103 210.09 88.176 209.866 87.8777 209.705C87.5841 209.539 87.2456 209.456 86.862 209.456C86.4738 209.456 86.1258 209.544 85.818 209.719C85.5102 209.889 85.2664 210.124 85.0865 210.422C84.9065 210.715 84.8118 211.049 84.8024 211.423V213.476C84.8024 213.921 84.89 214.312 85.0652 214.648C85.2404 214.979 85.4889 215.237 85.8109 215.422C86.1329 215.607 86.5164 215.699 86.9615 215.699C87.2692 215.699 87.5486 215.656 87.7995 215.571C88.0505 215.486 88.2659 215.36 88.4458 215.195C88.6258 215.029 88.7607 214.825 88.8507 214.584L92.0396 214.676C91.907 215.391 91.6158 216.014 91.166 216.544C90.7209 217.07 90.1362 217.479 89.4118 217.773C88.6873 218.062 87.8493 218.206 86.8975 218.206ZM103.373 210.422L100.184 210.507C100.151 210.28 100.061 210.079 99.9142 209.903C99.7675 209.723 99.5757 209.584 99.339 209.484C99.1069 209.38 98.8371 209.328 98.5293 209.328C98.1268 209.328 97.7836 209.409 97.4995 209.57C97.2201 209.731 97.0828 209.948 97.0875 210.223C97.0828 210.436 97.168 210.621 97.3432 210.777C97.5231 210.933 97.8427 211.059 98.302 211.153L100.404 211.551C101.493 211.759 102.303 212.105 102.833 212.588C103.368 213.071 103.638 213.71 103.643 214.506C103.638 215.254 103.416 215.905 102.975 216.459C102.54 217.013 101.943 217.444 101.186 217.751C100.428 218.054 99.5615 218.206 98.5861 218.206C97.0283 218.206 95.7997 217.886 94.9 217.247C94.0051 216.603 93.4938 215.741 93.3659 214.662L96.7963 214.577C96.8721 214.974 97.0686 215.277 97.3858 215.486C97.7031 215.694 98.1079 215.798 98.6003 215.798C99.0454 215.798 99.4076 215.715 99.687 215.55C99.9663 215.384 100.108 215.164 100.113 214.889C100.108 214.643 99.9995 214.446 99.7864 214.3C99.5733 214.148 99.2395 214.03 98.785 213.945L96.8816 213.582C95.7878 213.384 94.9734 213.017 94.4384 212.482C93.9033 211.942 93.6382 211.255 93.6429 210.422C93.6382 209.693 93.8323 209.07 94.2253 208.554C94.6183 208.033 95.177 207.635 95.9015 207.361C96.6259 207.086 97.4805 206.949 98.4654 206.949C99.9426 206.949 101.107 207.259 101.96 207.879C102.812 208.495 103.283 209.342 103.373 210.422ZM105.353 218V207.091H108.826V218H105.353ZM107.093 205.82C106.605 205.82 106.186 205.659 105.836 205.337C105.485 205.01 105.31 204.617 105.31 204.158C105.31 203.703 105.485 203.315 105.836 202.993C106.186 202.666 106.605 202.503 107.093 202.503C107.585 202.503 108.004 202.666 108.35 202.993C108.7 203.315 108.876 203.703 108.876 204.158C108.876 204.617 108.7 205.01 108.35 205.337C108.004 205.659 107.585 205.82 107.093 205.82ZM116.122 222.318C115.085 222.318 114.197 222.174 113.458 221.885C112.72 221.596 112.14 221.201 111.718 220.699C111.297 220.197 111.044 219.629 110.958 218.994L114.247 218.81C114.308 219.032 114.422 219.226 114.588 219.392C114.758 219.558 114.978 219.686 115.248 219.776C115.523 219.866 115.845 219.911 116.214 219.911C116.796 219.911 117.277 219.768 117.656 219.484C118.039 219.205 118.231 218.715 118.231 218.014V216.097H118.11C117.973 216.433 117.765 216.733 117.485 216.999C117.206 217.264 116.858 217.472 116.441 217.624C116.029 217.775 115.556 217.851 115.021 217.851C114.225 217.851 113.496 217.666 112.833 217.297C112.175 216.923 111.647 216.345 111.249 215.564C110.856 214.778 110.66 213.767 110.66 212.531C110.66 211.258 110.864 210.209 111.271 209.385C111.678 208.556 112.211 207.943 112.869 207.545C113.532 207.148 114.244 206.949 115.007 206.949C115.579 206.949 116.07 207.048 116.477 207.247C116.889 207.441 117.227 207.692 117.492 208C117.758 208.308 117.959 208.627 118.096 208.959H118.195V207.091H121.654V218.043C121.654 218.966 121.422 219.745 120.958 220.379C120.494 221.014 119.846 221.494 119.012 221.821C118.179 222.152 117.215 222.318 116.122 222.318ZM116.228 215.322C116.65 215.322 117.009 215.211 117.308 214.989C117.606 214.766 117.836 214.446 117.997 214.03C118.158 213.613 118.238 213.114 118.238 212.531C118.238 211.939 118.158 211.43 117.997 211.004C117.84 210.573 117.611 210.242 117.308 210.01C117.009 209.778 116.65 209.662 116.228 209.662C115.797 209.662 115.433 209.78 115.134 210.017C114.836 210.254 114.609 210.588 114.453 211.018C114.301 211.445 114.225 211.949 114.225 212.531C114.225 213.114 114.303 213.613 114.46 214.03C114.616 214.446 114.841 214.766 115.134 214.989C115.433 215.211 115.797 215.322 116.228 215.322ZM127.341 211.778V218H123.868V207.091H127.171V209.094H127.292C127.533 208.426 127.945 207.903 128.528 207.524C129.11 207.141 129.804 206.949 130.608 206.949C131.376 206.949 132.041 207.122 132.604 207.467C133.172 207.808 133.613 208.286 133.925 208.902C134.242 209.513 134.399 210.228 134.394 211.047V218H130.921V211.729C130.926 211.123 130.772 210.649 130.459 210.308C130.152 209.967 129.723 209.797 129.174 209.797C128.809 209.797 128.487 209.877 128.208 210.038C127.933 210.195 127.72 210.42 127.569 210.713C127.422 211.007 127.346 211.362 127.341 211.778Z" fill="white"/>
<path d="M347.462 536.455V551H343.947V536.455H347.462ZM349.669 536.455H354.023L357.716 545.46H357.887L361.58 536.455H365.933V551H362.51V542.065H362.389L358.895 550.908H356.708L353.213 542.016H353.093V551H349.669V536.455ZM368.126 551V536.455H374.135C375.224 536.455 376.164 536.668 376.954 537.094C377.75 537.515 378.363 538.105 378.794 538.862C379.225 539.615 379.44 540.491 379.44 541.49C379.44 542.494 379.22 543.372 378.78 544.125C378.344 544.873 377.721 545.453 376.912 545.865C376.102 546.277 375.141 546.483 374.028 546.483H370.321V543.713H373.375C373.905 543.713 374.348 543.621 374.703 543.436C375.063 543.251 375.335 542.993 375.52 542.662C375.704 542.326 375.797 541.935 375.797 541.49C375.797 541.04 375.704 540.652 375.52 540.325C375.335 539.994 375.063 539.738 374.703 539.558C374.343 539.378 373.9 539.288 373.375 539.288H371.642V551H368.126ZM381.173 551V536.455H384.689V548.145H390.74V551H381.173ZM392.56 551V536.455H402.702V539.31H396.075V542.293H402.183V545.155H396.075V548.145H402.702V551H392.56ZM404.904 536.455H409.257L412.95 545.46H413.121L416.814 536.455H421.168V551H417.744V542.065H417.624L414.129 550.908H411.942L408.448 542.016H408.327V551H404.904V536.455ZM423.361 551V536.455H433.503V539.31H426.876V542.293H432.984V545.155H426.876V548.145H433.503V551H423.361ZM448.084 536.455V551H445.101L439.312 542.605H439.22V551H435.704V536.455H438.73L444.454 544.835H444.575V536.455H448.084ZM449.818 539.31V536.455H462.112V539.31H457.702V551H454.236V539.31H449.818ZM465.159 551H461.381L466.289 536.455H470.969L475.877 551H472.098L468.682 540.119H468.568L465.159 551ZM464.655 545.276H472.553V547.946H464.655V545.276ZM475.15 539.31V536.455H487.444V539.31H483.034V551H479.568V539.31H475.15ZM492.677 536.455V551H489.161V536.455H492.677ZM508.613 543.727C508.613 545.328 508.305 546.684 507.689 547.797C507.074 548.91 506.241 549.755 505.189 550.332C504.143 550.91 502.969 551.199 501.667 551.199C500.36 551.199 499.183 550.908 498.137 550.325C497.09 549.743 496.26 548.898 495.644 547.79C495.033 546.677 494.728 545.323 494.728 543.727C494.728 542.127 495.033 540.77 495.644 539.658C496.26 538.545 497.09 537.7 498.137 537.122C499.183 536.545 500.36 536.256 501.667 536.256C502.969 536.256 504.143 536.545 505.189 537.122C506.241 537.7 507.074 538.545 507.689 539.658C508.305 540.77 508.613 542.127 508.613 543.727ZM505.019 543.727C505.019 542.78 504.884 541.98 504.614 541.327C504.349 540.673 503.965 540.179 503.464 539.842C502.966 539.506 502.367 539.338 501.667 539.338C500.971 539.338 500.372 539.506 499.87 539.842C499.368 540.179 498.982 540.673 498.712 541.327C498.447 541.98 498.314 542.78 498.314 543.727C498.314 544.674 498.447 545.474 498.712 546.128C498.982 546.781 499.368 547.276 499.87 547.612C500.372 547.948 500.971 548.116 501.667 548.116C502.367 548.116 502.966 547.948 503.464 547.612C503.965 547.276 504.349 546.781 504.614 546.128C504.884 545.474 505.019 544.674 505.019 543.727ZM523.045 536.455V551H520.062L514.273 542.605H514.181V551H510.665V536.455H513.691L519.415 544.835H519.536V536.455H523.045Z" fill="white"/>
<path d="M81.4697 174.53C81.7626 174.823 82.2374 174.823 82.5303 174.53L87.3033 169.757C87.5962 169.464 87.5962 168.99 87.3033 168.697C87.0104 168.404 86.5355 168.404 86.2426 168.697L82 172.939L77.7574 168.697C77.4645 168.404 76.9896 168.404 76.6967 168.697C76.4038 168.99 76.4038 169.464 76.6967 169.757L81.4697 174.53ZM81.25 166V174H82.75V166H81.25Z" fill="#888888"/>
<path d="M436.47 518.53C436.763 518.823 437.237 518.823 437.53 518.53L442.303 513.757C442.596 513.464 442.596 512.99 442.303 512.697C442.01 512.404 441.536 512.404 441.243 512.697L437 516.939L432.757 512.697C432.464 512.404 431.99 512.404 431.697 512.697C431.404 512.99 431.404 513.464 431.697 513.757L436.47 518.53ZM436.25 510V518H437.75V510H436.25Z" fill="#888888"/>
</svg>
